<?xml version="1.0" standalone="no"?>
<!DOCTYPE svg PUBLIC "-//W3C//DTD SVG 20010904//EN"
 "http://www.w3.org/TR/2001/REC-SVG-20010904/DTD/svg10.dtd">
<svg version="1.0" xmlns="http://www.w3.org/2000/svg"
 width="1024.000000pt" height="1024.000000pt" viewBox="0 0 1024.000000 1024.000000"
 preserveAspectRatio="xMidYMid meet">

<g transform="translate(0.000000,1024.000000) scale(0.100000,-0.100000)"
fill="#000000" stroke="none">
<path d="M2726 7203 c-8 -25 -66 -286 -66 -295 0 -5 253 -8 563 -8 425 0 566
-3 575 -12 19 -19 14 -66 -8 -88 -20 -20 -33 -20 -933 -20 -1033 0 -934 9
-956 -84 -11 -44 -10 -51 7 -68 17 -18 38 -19 346 -18 309 0 327 -1 322 -17
-3 -10 -15 -61 -26 -113 -11 -52 -23 -103 -26 -112 -5 -17 -38 -18 -517 -18
-570 0 -547 3 -567 -68 -14 -53 -12 -89 6 -96 9 -3 391 -6 850 -6 l834 0 -5
-22 c-3 -13 -9 -41 -13 -63 l-8 -40 -314 -3 c-202 -2 -317 -7 -321 -13 -3 -6
-12 -35 -18 -65 l-12 -54 -359 0 -359 0 -20 -26 c-26 -33 -38 -109 -21 -130
12 -13 131 -15 1062 -14 1008 2 1050 1 1063 -17 21 -26 18 -70 -5 -93 -20 -20
-33 -20 -725 -20 l-704 0 -9 -32 c-34 -126 -174 -779 -169 -792 6 -14 45 -16
365 -16 l359 0 16 80 c13 66 24 92 67 154 67 96 186 215 278 278 140 95 274
135 410 125 160 -12 304 -78 413 -186 108 -108 150 -223 153 -413 l1 -98 867
0 866 0 22 -64 c29 -88 65 -140 149 -218 41 -38 71 -68 68 -68 -4 0 -77 -18
-164 -40 -769 -192 -1751 -305 -2365 -272 -344 19 -538 57 -704 137 -68 33
-103 57 -137 94 -39 44 -46 49 -58 35 -7 -8 -14 -40 -17 -70 -4 -46 0 -64 27
-119 101 -204 446 -340 1019 -402 194 -20 774 -23 1027 -5 585 44 1136 126
1685 253 278 64 828 214 896 244 62 27 177 101 215 138 123 118 189 269 189
428 0 213 -72 349 -223 424 -66 33 -82 36 -187 42 -138 7 -202 -5 -303 -54
-295 -147 -414 -560 -239 -829 39 -59 69 -91 107 -113 18 -11 18 -11 -5 -6
-64 17 -121 56 -206 139 -50 50 -100 107 -110 126 -38 70 -18 250 53 465 24
74 33 87 112 169 195 200 354 273 581 264 98 -4 126 -9 192 -35 239 -94 362
-278 384 -574 l7 -91 126 4 c110 3 130 6 156 24 l30 22 54 465 54 464 -21 45
c-39 79 -74 103 -288 192 l-199 84 -245 335 c-349 477 -357 487 -415 516 l-49
26 -425 3 c-233 2 -428 -1 -432 -5 -5 -5 -47 -204 -93 -443 -180 -923 -266
-1374 -266 -1396 l0 -24 -622 1 c-343 1 -672 4 -733 8 l-110 6 -3 44 c-2 28 1
47 10 52 7 5 164 9 348 9 184 0 486 3 670 7 l335 6 68 326 c203 971 337 1628
337 1649 0 13 -13 37 -29 53 l-29 29 -1751 0 c-1658 0 -1750 -1 -1755 -17z
m4448 -583 c67 -59 131 -144 370 -492 l87 -128 -564 0 -563 0 54 313 c30 171
55 318 58 325 2 9 64 12 263 12 l260 0 35 -30z m243 -1671 c103 -39 155 -188
102 -295 -38 -79 -130 -140 -227 -150 -98 -10 -178 78 -176 197 2 163 167 299
301 248z"/>
<path d="M3510 5249 c-30 -5 -93 -28 -139 -50 -207 -102 -323 -303 -323 -559
1 -193 89 -346 246 -427 39 -20 75 -28 163 -35 102 -9 118 -8 180 11 148 45
306 167 381 293 59 99 84 190 84 296 -1 166 -30 256 -114 348 -69 75 -148 112
-264 124 -103 11 -139 11 -214 -1z m170 -309 c68 -35 119 -121 120 -206 0 -53
-41 -135 -86 -169 -49 -37 -116 -65 -172 -71 -100 -10 -182 83 -182 207 0 166
188 306 320 239z"/>
</g>
</svg>
